<svg width="512" height="512" viewBox="0 0 512 512" fill="none" xmlns="http://www.w3.org/2000/svg">
<path fill-rule="evenodd" clip-rule="evenodd" d="M307.581 316.32C252.788 368.583 165.87 367.849 111.978 314.12C57.3407 259.647 57.3407 171.328 111.978 116.855C166.615 62.3817 255.2 62.3817 309.838 116.855C360.362 167.227 364.165 246.541 321.248 301.271L441 420.662L426.619 435L307.581 316.32ZM295.457 131.192C248.762 84.6377 173.054 84.6377 126.359 131.192C79.6637 177.747 79.6637 253.227 126.359 299.782C173.054 346.337 248.762 346.337 295.457 299.782C342.152 253.227 342.152 177.747 295.457 131.192Z" fill="black"/>
</svg>
